<svg viewBox="0 0 26 24" fill="none" xmlns="http://www.w3.org/2000/svg" class="text-[1.48em]" style="display: inline-block; width: 1em; height: 1em; line-height: 1em; flex-shrink: 0; vertical-align: middle;"><path d="M15.4648 10.9235L19.4996 3.94135L16.3323 0.768066H7.12691L0.680106 11.9269L0.63916 11.998L6.55773 22.256L7.12305 23.2319H20.0794L25.3612 14.0961L22.1941 10.9235H15.4649H15.4648ZM18.3165 21.0725H9.73932C9.7005 21.0725 9.68119 21.0464 9.67462 21.035C9.66805 21.0238 9.65511 20.9942 9.67462 20.9604L14.2219 13.0767H23.1177C23.1892 13.0767 23.2533 13.1136 23.289 13.1756C23.3248 13.2375 23.3248 13.3113 23.289 13.3733L19.0987 20.6211C18.938 20.8994 18.6382 21.0723 18.3167 21.0723L18.3165 21.0725ZM7.68123 19.8817L3.3887 12.4497C3.22762 12.171 3.22762 11.8249 3.3887 11.546L8.10768 3.37507C8.26856 3.09675 8.56832 2.92351 8.89009 2.92351H17.2563C17.3278 2.92351 17.3917 2.96039 17.4274 3.02239C17.4632 3.08439 17.4632 3.15798 17.4274 3.21997L7.81063 19.8819C7.79112 19.9155 7.75887 19.9192 7.74612 19.9192C7.73299 19.9194 7.70093 19.9155 7.68123 19.8817Z" fill="currentColor"></path></svg>